<svg xmlns="http://www.w3.org/2000/svg" id="oslo-metro" width="19" height="19" viewBox="0 0 19 19"><g><path d="M9.5,19A9.5,9.5,0,1,1,19,9.5,9.5,9.5,0,0,1,9.5,19Z" fill="rgba(142, 204, 218, 0.91)" opacity="0.75"/><path d="M9.5,9.5 m-8.5,0 a8.5,8.5 0 1,0 17,0 a8.5,8.5 0 1,0 -17,0" fill="rgba(9, 23, 27, 0.91)"/><path d="M9.5,9.5 m-7.5,0 a7.5,7.5 0 1,0 15,0 a7.5,7.5 0 1,0 -15,0" fill="rgba(142, 204, 218, 0.91)"/><path d="M14,5,5,5,5,7,8.49,7,8.49,16,10.49,16,10.49,7,14,7,14,5 Z" fill="rgba(9, 23, 27, 0.91)"/></g></svg>